<?xml version="1.0" standalone="no"?>
<!DOCTYPE svg PUBLIC "-//W3C//DTD SVG 20010904//EN"
 "http://www.w3.org/TR/2001/REC-SVG-20010904/DTD/svg10.dtd">
<svg version="1.0" xmlns="http://www.w3.org/2000/svg"
 width="159.000000pt" height="158.000000pt" viewBox="0 0 159.000000 158.000000"
 preserveAspectRatio="xMidYMid meet">

<g transform="translate(0.000000,158.000000) scale(0.100000,-0.100000)"
fill="#000000" stroke="none">
<path d="M730 1444 c-241 -43 -445 -194 -534 -395 -63 -143 -73 -338 -26 -479
104 -313 394 -494 735 -461 254 25 462 183 563 430 46 112 54 314 17 426 -76
227 -259 403 -480 459 -62 15 -231 28 -275 20z m231 -293 c69 -26 165 -110
202 -178 53 -98 58 -279 11 -378 -27 -59 -119 -151 -177 -179 -202 -98 -437
-13 -526 190 -22 52 -25 73 -26 174 0 106 2 120 28 171 49 101 160 192 264
219 55 14 160 5 224 -19z"/>
<path d="M657 1026 c-73 -27 -107 -76 -107 -156 0 -27 3 -50 7 -50 3 0 30 12
60 26 45 22 62 26 105 21 28 -4 68 -16 90 -27 22 -11 44 -18 49 -15 16 10 10
77 -11 119 -36 74 -119 109 -193 82z"/>
<path d="M888 1033 c-23 -6 -23 -14 4 -60 31 -52 31 -141 0 -200 -12 -23 -22
-44 -22 -47 0 -3 15 -8 34 -12 74 -13 152 42 177 126 23 76 -34 166 -119 190
-39 10 -46 11 -74 3z"/>
<path d="M655 809 c-96 -29 -136 -150 -79 -235 15 -21 34 -44 43 -51 26 -20
90 -35 122 -28 l28 6 -23 47 c-39 76 -42 120 -12 194 14 36 26 68 26 71 0 10
-69 7 -105 -4z"/>
<path d="M1015 688 c-68 -33 -119 -32 -188 4 -49 25 -67 18 -67 -24 1 -76 55
-147 131 -169 100 -30 224 91 193 189 l-9 29 -60 -29z"/>
</g>
</svg>
